# xmcd CD database file
#
# Track frame offsets:
#	182
#	18325
#	43887
#	67180
#	81112
#	109590
#	128512
#	148405
#	166307
#	188610
#	212572
#	229432
#	250510
#
# Disc length: 3628 seconds
#
# Revision: 0
# Processed by: cddbd v1.5.2PL0 Copyright (c) Steve Scherf et al.
# Submitted via: CDex 1.70beta2
#
DISCID=b30e2a0d
DTITLE=Pierre Vaiana - El Dorado
DYEAR=1989
DGENRE=Jazz
TTITLE0=Checker
TTITLE1=Never Always Never
TTITLE2=El Dorado
TTITLE3=The Ballad Of All The Sad Young Men
TTITLE4=Correspondances
TTITLE5=Green Chimneys
TTITLE6=Cite Ardente
TTITLE7=Skippy
TTITLE8=Pannonica
TTITLE9=Maitres Chanteurs
TTITLE10=Token
TTITLE11=Street Dance
TTITLE12=Milord
EXTD=YEAR: 1989
EXTT0=
EXTT1=
EXTT2=
EXTT3=
EXTT4=
EXTT5=
EXTT6=
EXTT7=
EXTT8=
EXTT9=
EXTT10=
EXTT11=
EXTT12=
PLAYORDER=
